<?xml version="1.0" ?><!-- Created with Inkscape (http://www.inkscape.org/) --><!DOCTYPE svg  PUBLIC '-//W3C//DTD SVG 1.1//EN'  'http://www.w3.org/Graphics/SVG/1.1/DTD/svg11.dtd' [
	<!ENTITY stroke_color "#010101">
	<!ENTITY fill_color "#ffffff">
]><svg height="55" id="svg2439" inkscape:version="0.47 r22583" sodipodi:docname="quake.svg" version="1.0" viewBox="0 0 55 55" width="55" xml:space="preserve" xmlns="http://www.w3.org/2000/svg" xmlns:cc="http://creativecommons.org/ns#" xmlns:dc="http://purl.org/dc/elements/1.1/" xmlns:inkscape="http://www.inkscape.org/namespaces/inkscape" xmlns:rdf="http://www.w3.org/1999/02/22-rdf-syntax-ns#" xmlns:sodipodi="http://sodipodi.sourceforge.net/DTD/sodipodi-0.dtd" xmlns:svg="http://www.w3.org/2000/svg"><metadata id="metadata9"><rdf:RDF><cc:Work rdf:about=""><dc:format>image/svg+xml</dc:format><dc:type rdf:resource="http://purl.org/dc/dcmitype/StillImage"/></cc:Work></rdf:RDF></metadata><sodipodi:namedview bordercolor="#666666" borderopacity="1" gridtolerance="10" guidetolerance="10" id="namedview7" inkscape:current-layer="svg2439" inkscape:cx="27.5" inkscape:cy="27.035865" inkscape:pageopacity="0" inkscape:pageshadow="2" inkscape:window-height="973" inkscape:window-maximized="1" inkscape:window-width="1280" inkscape:window-x="-2" inkscape:window-y="0" inkscape:zoom="3.0652721" objecttolerance="10" pagecolor="#ffffff" showgrid="false"/><defs id="defs2449"><inkscape:perspective id="perspective11" inkscape:persp3d-origin="27.5 : 18.333333 : 1" inkscape:vp_x="0 : 27.5 : 1" inkscape:vp_y="0 : 1000 : 0" inkscape:vp_z="55 : 27.5 : 1" sodipodi:type="inkscape:persp3d"/>
	
		
	
	
<inkscape:perspective id="perspective2926" inkscape:persp3d-origin="0.5 : 0.33333333 : 1" inkscape:vp_x="0 : 0.5 : 1" inkscape:vp_y="0 : 1000 : 0" inkscape:vp_z="1 : 0.5 : 1" sodipodi:type="inkscape:persp3d"/></defs><path d="M 53.795011,52.753122 2.2133268,52.937166 28.179748,2.8501403 53.795011,52.753122 z" id="rect2442" sodipodi:nodetypes="cccc" style="fill:&fill_color;;stroke:&stroke_color;;stroke-width:3.76116967;stroke-linejoin:round;display:inline"/><g id="g3646" inkscape:export-filename="/home/hmd/abcube/eviltoys.png" inkscape:export-xdpi="68.57177" inkscape:export-ydpi="68.57177" transform="matrix(0.11302206,0,0,0.11302206,-20.526315,-12.77187)"><path d="m 339.39493,445.0239 c 0,38.36545 -31.10135,69.46679 -69.4668,69.46679 -38.36545,0 -69.4668,-31.10134 -69.4668,-69.46679 0,-38.36546 31.10135,-69.4668 69.4668,-69.4668 38.36545,0 69.4668,31.10134 69.4668,69.4668 z" id="path2826" sodipodi:cx="269.92813" sodipodi:cy="445.0239" sodipodi:rx="69.466797" sodipodi:ry="69.466797" sodipodi:type="arc" style="fill:#000000;fill-opacity:1;stroke:none" transform="matrix(0.96346763,0.26782482,-0.26782482,0.96346763,230.29705,-13.91885)"/><rect height="33.741016" id="rect2828" ry="7.7849975" style="fill:#000000;fill-opacity:1;stroke:none" transform="matrix(0.96346763,0.26782482,-0.26782482,0.96346763,0,0)" width="77.405861" x="450.3735" y="282.69592"/><path d="m 391.26022,403.25637 c 0,0 15.22875,-31.06384 34.17793,-39.53819 28.74775,-12.8564 37.2482,-8.87671 37.2482,-8.87671" id="path2830" sodipodi:nodetypes="csc" style="fill:none;stroke:#000000;stroke-width:4.42353773;stroke-linecap:butt;stroke-linejoin:miter;stroke-miterlimit:4;stroke-opacity:1;stroke-dasharray:17.69415133, 17.69415133;stroke-dashoffset:0.88470765"/><rect height="31.281727" id="rect3610" ry="0.68003762" style="fill:#000000;fill-opacity:1;stroke:#000000;stroke-width:0.13705146;stroke-miterlimit:4;stroke-opacity:1;stroke-dasharray:0.54820584, 0.54820584;stroke-dashoffset:0" transform="matrix(0.97464294,0.22376581,-0.22376581,0.97464294,0,0)" width="1.3600752" x="522.20386" y="189.24763"/><rect height="29.496264" id="rect3612" ry="0.64122313" style="fill:#000000;fill-opacity:1;stroke:#000000;stroke-width:0.12922898;stroke-miterlimit:4;stroke-opacity:1;stroke-dasharray:0.51691594, 0.51691594;stroke-dashoffset:0" transform="matrix(0.94736247,-0.32016302,0.32016302,0.94736247,0,0)" width="1.2824463" x="313.62668" y="424.44403"/><rect height="36.059616" id="rect3614" ry="0.78390473" style="fill:#000000;fill-opacity:1;stroke:#000000;stroke-width:0.15787312;stroke-miterlimit:4;stroke-opacity:1;stroke-dasharray:0.63149248, 0.63149248;stroke-dashoffset:0" transform="matrix(-0.68696045,0.7266948,-0.73944914,-0.67321243,0,0)" width="1.5656028" x="-51.334995" y="-627.41827"/><rect height="35.478184" id="rect3616" ry="0.77126485" style="fill:#000000;fill-opacity:1;stroke:#000000;stroke-width:0.15543696;stroke-miterlimit:4;stroke-opacity:1;stroke-dasharray:0.62174786, 0.62174786;stroke-dashoffset:0" transform="matrix(0.30721464,-0.95164025,0.95164025,0.30721464,0,0)" width="1.5425297" x="-196.03166" y="477.57422"/><rect height="33.519657" id="rect3618" ry="0.72868818" style="fill:#000000;fill-opacity:1;stroke:#000000;stroke-width:0.17208643;stroke-miterlimit:4;stroke-opacity:1;stroke-dasharray:0.68834575, 0.68834575;stroke-dashoffset:0" transform="matrix(-0.99976053,-0.02188357,0.04128585,-0.99914738,0,0)" width="2.0011518" x="-467.40054" y="-397.82004"/><rect height="31.281727" id="rect3620" ry="0.68003762" style="fill:#000000;fill-opacity:1;stroke:#000000;stroke-width:0.13705146;stroke-miterlimit:4;stroke-opacity:1;stroke-dasharray:0.54820584, 0.54820584;stroke-dashoffset:0" transform="matrix(0.56792257,0.82308198,-0.82308198,0.56792257,0,0)" width="1.3600752" x="550.31665" y="-227.3166"/></g></svg>