/* XPM */
static char * eviltoys_xpm[] = {
"48 48 324 2",
"  	c None",
". 	c #100C02",
"+ 	c #5B4B0E",
"@ 	c #2C2507",
"# 	c #CAA821",
"$ 	c #43380B",
"% 	c #826B15",
"& 	c #FFDB2B",
"* 	c #9D8319",
"= 	c #3A310A",
"- 	c #EAC226",
"; 	c #FFD42A",
"> 	c #F9CF29",
", 	c #44370B",
"' 	c #7F6A15",
") 	c #FFD52A",
"! 	c #977D19",
"~ 	c #2E2508",
"{ 	c #F1C827",
"] 	c #F6CD29",
"^ 	c #342A08",
"/ 	c #9A8019",
"( 	c #A1861B",
"_ 	c #362E09",
": 	c #E8C126",
"< 	c #EBC326",
"[ 	c #382F09",
"} 	c #8F7718",
"| 	c #FFD82A",
"1 	c #FFD72A",
"2 	c #907817",
"3 	c #40350A",
"4 	c #F4CA28",
"5 	c #3D320A",
"6 	c #937A18",
"7 	c #FCD229",
"8 	c #FED329",
"9 	c #836D16",
"0 	c #342B08",
"a 	c #D6B224",
"b 	c #F7CD29",
"c 	c #D4AF23",
"d 	c #F1C828",
"e 	c #302808",
"f 	c #AA8E1C",
"g 	c #F3CA28",
"h 	c #BA9A1E",
"i 	c #B7981E",
"j 	c #937B18",
"k 	c #42370B",
"l 	c #EFC727",
"m 	c #FFD92B",
"n 	c #FFD62A",
"o 	c #AD901C",
"p 	c #AB8E1B",
"q 	c #E0BB24",
"r 	c #C1A11F",
"s 	c #2E2607",
"t 	c #D4B022",
"u 	c #D7B423",
"v 	c #D0AC22",
"w 	c #DDB824",
"x 	c #C4A31F",
"y 	c #E2BD25",
"z 	c #816A15",
"A 	c #463B0B",
"B 	c #FAD029",
"C 	c #D7B323",
"D 	c #AC8F1C",
"E 	c #E0BA24",
"F 	c #BF9F1F",
"G 	c #D3AF22",
"H 	c #E6BF25",
"I 	c #372D08",
"J 	c #A78A1B",
"K 	c #FDD22A",
"L 	c #F5CC28",
"M 	c #FDD329",
"N 	c #735F12",
"O 	c #3C320A",
"P 	c #E5BE25",
"Q 	c #D6B223",
"R 	c #DCB724",
"S 	c #BA9B1E",
"T 	c #E9C226",
"U 	c #2D2607",
"V 	c #1F1906",
"W 	c #B99A1F",
"X 	c #FCD22A",
"Y 	c #A3881A",
"Z 	c #FBD129",
"` 	c #CDAA22",
" .	c #B2941D",
"..	c #FED32A",
"+.	c #7D6815",
"@.	c #4E420E",
"#.	c #FFDC2B",
"$.	c #F8CE28",
"%.	c #FAD129",
"&.	c #D4B123",
"*.	c #C7A521",
"=.	c #E3BC25",
"-.	c #D9B524",
";.	c #272005",
">.	c #AC8F1D",
",.	c #E2BC25",
"'.	c #C7A620",
").	c #E7C026",
"!.	c #FFDA2A",
"~.	c #FFDE2C",
"{.	c #9A8018",
"].	c #F5CC29",
"^.	c #FFD82B",
"/.	c #756113",
"(.	c #4E410D",
"_.	c #7F6914",
":.	c #473B0B",
"<.	c #846E16",
"[.	c #665511",
"}.	c #D9B423",
"|.	c #AB8F1B",
"1.	c #DAB524",
"2.	c #302707",
"3.	c #262006",
"4.	c #BC9D1F",
"5.	c #F6CD28",
"6.	c #090701",
"7.	c #000000",
"8.	c #322908",
"9.	c #776314",
"0.	c #E7C025",
"a.	c #DEB924",
"b.	c #625110",
"c.	c #483B0C",
"d.	c #A78B1B",
"e.	c #060501",
"f.	c #020200",
"g.	c #867016",
"h.	c #FDD229",
"i.	c #DFB924",
"j.	c #2B2306",
"k.	c #211B04",
"l.	c #C6A521",
"m.	c #ECC426",
"n.	c #4D400C",
"o.	c #1D1804",
"p.	c #010000",
"q.	c #A5891B",
"r.	c #6B5910",
"s.	c #5D4D0F",
"t.	c #5C4C0E",
"u.	c #020100",
"v.	c #080601",
"w.	c #CEAC21",
"x.	c #221C05",
"y.	c #1E1905",
"z.	c #BB9B1F",
"A.	c #9E8319",
"B.	c #685711",
"C.	c #56470E",
"D.	c #3C3209",
"E.	c #241E06",
"F.	c #292207",
"G.	c #2A2207",
"H.	c #CEAB22",
"I.	c #DFBA24",
"J.	c #55460E",
"K.	c #57470E",
"L.	c #FCD129",
"M.	c #C7A621",
"N.	c #A98D1C",
"O.	c #292107",
"P.	c #1F1A05",
"Q.	c #D2AE22",
"R.	c #B5971D",
"S.	c #AE911D",
"T.	c #5A4A0F",
"U.	c #6C5A12",
"V.	c #D3B023",
"W.	c #C2A120",
"X.	c #251F05",
"Y.	c #151103",
"Z.	c #120E02",
"`.	c #E3BD25",
" +	c #5D4C0E",
".+	c #60510F",
"++	c #665510",
"@+	c #B8981E",
"#+	c #2E2506",
"$+	c #E0B925",
"%+	c #1B1604",
"&+	c #0F0D02",
"*+	c #CDAB22",
"=+	c #4A3E0C",
"-+	c #685611",
";+	c #B8991E",
">+	c #131003",
",+	c #0C0901",
"'+	c #C4A320",
")+	c #221C06",
"!+	c #F7CD28",
"~+	c #CCAA21",
"{+	c #6E5B11",
"]+	c #312908",
"^+	c #221D05",
"/+	c #2A2307",
"(+	c #715E12",
"_+	c #BE9E1F",
":+	c #4B3F0C",
"<+	c #7C6714",
"[+	c #FFDA2B",
"}+	c #FFD92A",
"|+	c #C3A220",
"1+	c #BD9D1F",
"2+	c #B7971E",
"3+	c #2D2507",
"4+	c #D8B323",
"5+	c #D1AE22",
"6+	c #E1BB25",
"7+	c #F2C928",
"8+	c #EDC527",
"9+	c #F6CC28",
"0+	c #D0AD22",
"a+	c #D8B423",
"b+	c #EAC326",
"c+	c #CFAB22",
"d+	c #F4CB28",
"e+	c #FBD029",
"f+	c #52430C",
"g+	c #6E5B12",
"h+	c #6D5A12",
"i+	c #8B7317",
"j+	c #CBA921",
"k+	c #877016",
"l+	c #A4881A",
"m+	c #C9A621",
"n+	c #856E16",
"o+	c #8F7717",
"p+	c #977E18",
"q+	c #967D18",
"r+	c #967D19",
"s+	c #907717",
"t+	c #A68A1B",
"u+	c #302907",
"v+	c #E9C125",
"w+	c #0B0902",
"x+	c #9D8219",
"y+	c #342B09",
"z+	c #E4BD25",
"A+	c #AD8F1C",
"B+	c #655310",
"C+	c #C3A31F",
"D+	c #130F03",
"E+	c #58490E",
"F+	c #493D0C",
"G+	c #A1871A",
"H+	c #4F410C",
"I+	c #2B2307",
"J+	c #B5961E",
"K+	c #41360B",
"L+	c #7B6714",
"M+	c #7A6514",
"N+	c #856F15",
"O+	c #786313",
"P+	c #3F350A",
"Q+	c #AE901C",
"R+	c #6A5711",
"S+	c #1E1904",
"T+	c #826C15",
"U+	c #997F18",
"V+	c #211C05",
"W+	c #362D09",
"X+	c #AB8F1C",
"Y+	c #3A300A",
"Z+	c #B3961D",
"`+	c #251E05",
" @	c #E4BE25",
".@	c #50420D",
"+@	c #B3951D",
"@@	c #050401",
"#@	c #887116",
"$@	c #E8C125",
"%@	c #1F1905",
"&@	c #A98C1C",
"*@	c #211B05",
"=@	c #6D5A11",
"-@	c #E9C126",
";@	c #4F420C",
">@	c #695711",
",@	c #3D330A",
"'@	c #C9A721",
")@	c #5C4D0F",
"!@	c #362D08",
"~@	c #AE911C",
"{@	c #3E330A",
"]@	c #8A7216",
"^@	c #9C8219",
"/@	c #A4881B",
"(@	c #B1931D",
"_@	c #F2C927",
":@	c #B6971D",
"<@	c #A98C1B",
"[@	c #41350B",
"}@	c #EBC327",
"|@	c #FFE82E",
"1@	c #FFE32D",
"2@	c #FFDF2C",
"3@	c #FFE62D",
"4@	c #FFE72D",
"5@	c #FFE42D",
"6@	c #FFE22D",
"7@	c #FFE22C",
"8@	c #52440C",
"9@	c #5A4A0E",
"0@	c #736013",
"a@	c #141003",
"b@	c #4A3C0B",
"c@	c #54470D",
"d@	c #54450D",
"e@	c #54460D",
"f@	c #53450D",
"g@	c #52440D",
"h@	c #4E400D",
"i@	c #151104",
"                                                .                                               ",
"                                                +                                               ",
"                                              @ # $                                             ",
"                                              % & *                                             ",
"                                            = - ; > ,                                           ",
"                                            ' ) ; ; !                                           ",
"                                          ~ { ; ; ; ] ^                                         ",
"                                          / ) ; ; ; ) (                                         ",
"                                        _ : ; ; ; ; ; < [                                       ",
"                                        } | ; ; ; ; ; 1 2                                       ",
"                                      3 4 ; ; ; ; ; ; ; { 5                                     ",
"                                      6 ; ; ; ; 7 8 ; 7 ; 9                                     ",
"                                    0 ] ; ; ; ; a b ; c ; d e                                   ",
"                                    f ) ; ; ; ; g h ; i ; 1 j                                   ",
"                                  k l ; ; ) m m n o ; p | q r s                                 ",
"                                  * 1 ; ; : t t l u n v w x y z                                 ",
"                                A B ; ; ; C D o E 1 { 1 F G n H I                               ",
"                                J ; ; ; ; ) n ) K L F ; M ) ; ) N                               ",
"                              O B ; ; ; ; ; ; P d Q R ; S n ; ; T U                             ",
"                            V W ) ; ; ; ; ) X Y Z L Q ; `  .n ; ..+.                            ",
"                            @.L ; ; m #.| $.%.&.; )  .; { *.=.; ; -.;.                          ",
"                            >.n ; ; ,.'.).'.!.~.; ; {.; n ].=.; ; ^./.                          ",
"                          (.) ; ; ) _.:.<.[.}.: 8 ; |.; ; ) n ; ; ; 1.2.                        ",
"                        3.4.; ; ; 5.6.7.7.7.8.9.0.; a.; ; ; ; ; ; ; ) b.                        ",
"                        c.Z ; ) B d.e.7.7.7.f.e.g.; h.; ; ; ; ; ; ; ; i.j.                      ",
"                      k.l.) n m.n.o.p.7.7.7.7.7.q.; ; ; ; ; ; ; ; ; ; 7 r.                      ",
"                      s.B ; { t.u.7.7.7.7.7.7.v.Q ; ; ; ; ; ; ; ; ; ; ) w.x.                    ",
"                    y.z.) ) J 7.7.7.7.7.7.7.7.v.A.) ; ; ; ; ; ; ; ; ; ; 1 B.                    ",
"                    C.^.; > D.7.7.7.7.7.7.7.7.7.E.B ; ; ; ; ; ; ; ; ; ; ; # F.                  ",
"                  G.H.; ; I.7.7.7.7.7.7.7.7.7.7.7.w ; ; ; ; ; ; ; ; ; ; ; n J.                  ",
"                  K.L.; ; M.7.7.7.7.7.7.7.7.7.7.7.N.; ; ; ; ; ; ; ; ; ; ; ; t O.                ",
"                P.Q.) ; ; R.7.7.7.7.7.7.7.7.7.7.7.S.; ; ; ; ; ; ; ; ; ; ; ; B T.                ",
"                U.8 ; ; ; V.7.7.7.7.7.7.7.7.7.7.7.r ; ; ; ; ; ; ; ; ; ; ; ; ) W.                ",
"              X.# ; ; ; ; L Y.7.7.7.7.7.7.7.7.7.Z.`.; ; ; ; ; ; ; ; ; ; ; ; ; ;  +              ",
"              .+m ; ; ; ; ) ++7.7.7.7.7.7.7.7.7.s.n ; ; ; ; ; ; ; ; ; ; ; ; ; ; @+              ",
"            #+R ; ; ; ; ; ; $+%+7.7.7.7.7.7.7.&+*+; ; ; ; ; ; ; ; ; ; ; ; ; ; ; n =+            ",
"            -+h.; ; ; ; ; ; h.;+>+7.7.7.7.7.,+;+L.; ; ; ; ; ; ; ; ; ; ; ; ; ; ; ; '+            ",
"          )+R ; ; ; ; ; ; ; ; !+~+{+]+^+/+(+_+!+) ; ; ; ; ; ; ; ; ; ; ; ; ; ; ; ; !+:+          ",
"          <+n ; ; ; ; [+[+n }+n ~.i.|+i 1+w n n [+[+[+; 1 m ; m ; | n | [+) ; ; ; n 2+          ",
"        3+4+; ; ; ; ; }.5+T 6+; l 7+8+) 9+[+) h.0+a+0+Z b+}.) }.n < 8+0.c+d+; ; ; ; e+f+        ",
"        g+| ; ; ; ; ..h+i+j+k+h.l+m+n+0+J ; ; e+o+g+o+E l+p+0+q+G r+G o+s+`.; ; ; ; ) t+        ",
"      u+v+; ; ; ; ; K w+x+R y+z+0 0+F.A+B+; ; K C+D+C+t+E+t+F+G+H+]+z+I+J+I.; ; ; ; ; ) K+      ",
"      L+M ; ; ; ; ; K w+M+C N+O+P+0.3+Q+R+| ; ..Z S+Z T+U+L V+> W+X+8 6 Y+D ; ; ; ; ; ; Z+      ",
"    `+ @; ; ; ; ; ; K 7..@+@C @@#@$@%@&@*@=@-@; ) &+) '.;@>@L+) ,@'@0.)@!@~@; ; ; ; ; ; g {@    ",
"    ]@1 ; ; ; ; ; ; ..^@S a.B q+a.9+D i./@+@g ; ; t+; 9++@(@w ; S 8+_@;+:@`.; ; ; ; ; ; n <@    ",
"  [@}@[+m m [+[+[+[+[+|@1@~.& |@2@& 3@~.3@1@& m [+4@[+& 5@6@2@m 5@#.& 6@7@~.m m m m m m m Z 8@  ",
"  9@P 6+6+6+6+6+6+6+6+6+6+6+6+6+6+6+6+6+6+6+6+6+6+6+6+6+6+6+6+6+6+6+6+6+6+6+6+6+6+6+6+6+6+`.0@  ",
"a@b@c@c@c@c@d@d@d@d@d@d@e@e@e@e@e@e@e@e@e@e@e@e@d@d@d@d@d@d@f@f@f@f@f@f@f@f@f@f@f@f@g@g@g@g@h@i@"};
