<?xml version="1.0" encoding="UTF-8" standalone="no"?>
<!-- Created with Inkscape (http://www.inkscape.org/) -->

<svg
   xmlns:dc="http://purl.org/dc/elements/1.1/"
   xmlns:cc="http://creativecommons.org/ns#"
   xmlns:rdf="http://www.w3.org/1999/02/22-rdf-syntax-ns#"
   xmlns:svg="http://www.w3.org/2000/svg"
   xmlns="http://www.w3.org/2000/svg"
   xmlns:sodipodi="http://sodipodi.sourceforge.net/DTD/sodipodi-0.dtd"
   xmlns:inkscape="http://www.inkscape.org/namespaces/inkscape"
   version="1.0"
   width="55"
   height="55"
   viewBox="0 0 55 55"
   id="svg2439"
   xml:space="preserve"
   inkscape:version="0.46+devel r22099"
   sodipodi:docname="quake.svg"><metadata
     id="metadata2903"><rdf:RDF><cc:Work
         rdf:about=""><dc:format>image/svg+xml</dc:format><dc:type
           rdf:resource="http://purl.org/dc/dcmitype/StillImage" /><dc:title></dc:title><cc:license
           rdf:resource="http://creativecommons.org/licenses/publicdomain/" /></cc:Work><cc:License
         rdf:about="http://creativecommons.org/licenses/publicdomain/"><cc:permits
           rdf:resource="http://creativecommons.org/ns#Reproduction" /><cc:permits
           rdf:resource="http://creativecommons.org/ns#Distribution" /><cc:permits
           rdf:resource="http://creativecommons.org/ns#DerivativeWorks" /></cc:License></rdf:RDF></metadata><sodipodi:namedview
     pagecolor="#ffffff"
     bordercolor="#666666"
     borderopacity="1"
     objecttolerance="10"
     gridtolerance="10"
     guidetolerance="10"
     inkscape:pageopacity="0"
     inkscape:pageshadow="2"
     inkscape:window-width="1024"
     inkscape:window-height="748"
     id="namedview2901"
     showgrid="false"
     inkscape:zoom="4.2909091"
     inkscape:cx="27.5"
     inkscape:cy="27.5"
     inkscape:window-x="-1"
     inkscape:window-y="0"
     inkscape:window-maximized="1"
     inkscape:current-layer="svg2439" /><defs
     id="defs2449"><inkscape:perspective
   sodipodi:type="inkscape:persp3d"
   inkscape:vp_x="0 : 27.5 : 1"
   inkscape:vp_y="0 : 1000 : 0"
   inkscape:vp_z="55 : 27.5 : 1"
   inkscape:persp3d-origin="27.5 : 18.333333 : 1"
   id="perspective2905" />
	
		
	
	
</defs><rect
     style="fill:#ffffff;stroke:#010101;stroke-width:3.5;stroke-linejoin:round;display:inline"
     id="rect2442"
     y="11.959506"
     x="6.7049999"
     height="30.771"
     width="41.438" /><path
     style="font-size:16px;font-style:normal;font-variant:normal;font-weight:normal;font-stretch:normal;fill:#000000;fill-opacity:1;stroke:none;font-family:Arial Black;-inkscape-font-specification:Arial Black"
     id="text2458"
     d="m 31.484,23.747006 c 0,3.611996 -2.352003,7 -4.928,7 -1.903998,0 -3.108,-1.344003 -3.108,-3.864 0,-3.695997 2.352002,-7 4.928,-7 1.875998,0 3.108,1.344002 3.108,3.864 m -8.456,9.548 -1.82,1.512 c -0.839999,0.699999 -1.372,1.204001 -1.372,1.988 0,0.615999 0.448,1.092 1.092,1.092 0.811999,0 2.184001,-1.092 3.948,-1.092 1.119999,0 2.520001,0.868 4.116,0.868 1.987998,0 3.752,-1.176001 3.752,-2.268 0,-0.532 -0.336001,-0.784 -0.98,-0.784 -0.588,0 -1.400001,0.616 -2.212,0.616 -0.811999,0 -1.932002,-0.616 -3.472,-0.616 -1.371999,0 -2.604002,0.392 -4.032,1.064 l 2.352,-1.988 c 0.643999,0.14 1.288,0.196 1.932,0.196 5.123995,0 9.044,-4.648006 9.044,-10.248 0,-4.339996 -2.492004,-6.832 -6.664,-6.832 -2.603998,0 -4.928002,1.064002 -6.552,2.968 -1.707999,1.987998 -2.688,4.676002 -2.688,7.308 0,3.023997 1.204002,5.124001 3.556,6.216" /></svg>